PathFileType	4	(X/Y/Z)	Patient4_TMGait_0pt5_02_left_04.trc.trc
DataRate	CameraRate	NumFrames	NumMarkers	Units	OrigDataRate	OrigDataStartFrame	OrigNumFrames
75.675675675676	75.675675675676	4	33	mm	75.675675675676	71	       141
Frame#	Time	Sacral			L.Shoulder			Chest			R.Shoulder			Neck			R.ASIS			L.ASIS			R.Thigh.Superior			R.Thigh.Lateral			R.Thigh.Inferior			R.Patella			L.Thigh.Superior			L.Thigh.Lateral			L.Thigh.Inferior			L.Patella			L.Shank.Superior			L.Shank.Lateral			L.Shank.Inferior			R.Shank.Superior			R.Shank.Lateral			R.Shank.Inferior			R.Heel			R.Midfoot.Superior			R.Midfoot.Lateral			R.Toe			L.Heel			L.Midfoot.Lateral			L.Midfoot.Superior			L.Toe			L.Elbow			L.Wrist			R.Elbow			R.Wrist			
		X1	Y1	Z1	X2	Y2	Z2	X3	Y3	Z3	X4	Y4	Z4	X5	Y5	Z5	X6	Y6	Z6	X7	Y7	Z7	X8	Y8	Z8	X9	Y9	Z9	X10	Y10	Z10	X11	Y11	Z11	X12	Y12	Z12	X13	Y13	Z13	X14	Y14	Z14	X15	Y15	Z15	X16	Y16	Z16	X17	Y17	Z17	X18	Y18	Z18	X19	Y19	Z19	X20	Y20	Z20	X21	Y21	Z21	X22	Y22	Z22	X23	Y23	Z23	X24	Y24	Z24	X25	Y25	Z25	X26	Y26	Z26	X27	Y27	Z27	X28	Y28	Z28	X29	Y29	Z29	X30	Y30	Z30	X31	Y31	Z31	X32	Y32	Z32	X33	Y33	Z33	

71	5.365000000000	567.192506765842	1011.965890085760	458.178482734479	789.856135184498	1431.892526493846	295.163776055516	866.331163566417	1354.496472261926	466.890384923683	766.848129118372	1435.328989708813	629.898058566198	774.340169804541	1492.213665135894	445.858216562176	780.499055696782	941.206818089286	598.349624756417	793.881517033819	954.384824464971	322.694622912477	848.489944050311	761.899295803667	572.840307476550	794.687431802509	644.269225463755	641.049807259254	881.582313357558	601.257048520063	561.262100101324	911.467473753075	519.796210017492	577.502206988720	808.314799972086	732.925775934803	358.764213569234	705.580964144365	631.278973792662	292.140744522479	767.383219591347	543.080452540024	363.554849582036	754.831978884045	473.932221936538	374.090607656730	722.254031556457	406.221512389379	364.488339832088	625.074992748836	301.018443014997	309.741568189573	656.028353946198	187.083409967547	385.385278768837	896.431518181901	433.345932598739	585.754683584612	844.433908610116	317.749273791925	645.398912219395	915.985734513311	233.794346504997	593.381333164406	825.008531751288	47.965131283164	557.492422932513	986.328515165503	118.050117516751	601.872603538973	908.501344464183	41.485801918541	632.405975695009	1111.553052137117	80.548851580625	630.029932015501	512.560091474585	38.334004132399	422.379586600213	588.412204417299	35.454682044373	343.827772415946	671.929319500647	94.844453840954	373.096243744473	800.289459859730	40.369156745227	346.936760681636	805.240836825392	1092.444612753611	147.732818158351	1030.619334421503	973.572588703697	192.953628925600	618.487129194332	1120.689388610051	730.709187550167	598.919517420127	861.277405024565	750.281475830880	
72	5.378214285714	568.595100330515	1010.268337742005	460.135284104950	788.638899273410	1431.307114377701	297.634287907278	865.600286483387	1354.308619292722	469.260525846414	765.668404340732	1434.329528515002	632.380530420443	772.787286331318	1491.378734764264	448.380041345614	782.030494237996	939.780137574142	600.171373072510	795.247087025880	953.714070263243	324.593960372205	849.192004019334	759.469147504241	574.720514617333	793.280252348558	641.626155026771	641.668480687394	880.470699133240	598.763664850074	562.453559692469	909.161511932406	517.743635620268	577.618143980584	807.981965072337	731.428152430179	360.449374066377	704.111968611183	630.690597675213	293.309188848588	764.604901017532	541.857724578241	364.805064539871	751.342815715258	472.697779849323	375.197026787546	718.287986882845	405.237454307096	365.426164533559	620.270115460475	300.871630147883	310.389609790463	650.117265992224	186.550131887466	385.838737686402	895.049533752141	430.927960821725	585.678252435029	843.510530855892	314.771664656171	644.438628082130	915.933203890728	231.620233298906	592.390417602095	826.040446573569	46.235293685254	555.614574244653	987.208145496555	115.987247567517	600.372021253561	909.191925055573	40.028960706748	630.852673023872	1112.193519227769	78.393946641777	628.895601368680	505.840304751761	38.142303726166	422.408859067758	581.729546589746	35.341310470535	343.916350577678	665.228877676088	94.777069829420	373.239677892026	793.625051940091	40.313965063571	346.936229372550	806.202069075729	1091.636750708255	151.015865392735	1033.159790461639	976.586802374660	197.507499772996	617.792553788519	1119.003854257008	731.286155993734	598.751437901275	859.304169341007	749.019151100483	
73	5.391428571429	570.186767152626	1008.479912901683	462.303769185782	787.330125998176	1430.691314515107	300.284828659480	864.882989007980	1354.152038293513	471.795273748372	764.472658041870	1433.258246339273	635.074730860941	771.152201347125	1490.499815603408	451.107134526841	783.799953640393	938.322559423115	602.073917630960	796.789346070586	953.036664355293	326.623066579688	850.567237603491	757.286380288879	576.575751951559	792.506264703306	639.084984758725	642.018377812256	880.184400285897	596.580832559121	563.560332459164	907.444301997202	515.573112704558	577.557922845435	807.886822701077	729.895179595376	362.108332372593	702.866828541679	630.045041447395	294.625317296732	762.194129692239	540.602196858021	366.133769542202	748.299165328724	471.352813468404	376.385457506141	714.623776572156	404.187243282779	366.458480569533	615.636663983499	300.776070793173	311.112989386331	644.309716561493	186.014588072461	386.303967681211	893.735451297531	428.215578640552	585.336848864084	841.821328565717	311.911685467034	643.225201475358	914.298535719122	229.056001719108	591.055725308164	823.912055426592	44.966871605635	553.636219356153	985.453110779643	113.451287295428	598.523594235997	906.673978420251	38.839561503632	629.240832501638	1109.883515791262	74.983440856591	627.491662020813	499.106552243608	37.979106399812	422.415155098604	575.058169244391	35.218607928797	344.004910722265	658.558582315010	94.701303474445	373.368410536778	786.994566680192	40.237302165747	346.915167685555	806.677966461125	1090.726150422879	154.485214952413	1034.930237306872	978.935423657036	202.122506475025	617.830201465512	1116.865718753756	732.130261680626	600.052767218141	856.817440723561	747.936322276171	
74	5.404642857143	571.921941321344	1006.655736852749	464.652996823837	785.970253617367	1430.071534696737	303.111703198893	864.200496184796	1354.034701048106	474.494034026468	763.290652835391	1432.144708366881	637.975010321181	769.491342143889	1489.612830948926	454.035852001899	785.758673109670	936.877100313467	604.044315063334	798.453758101899	952.386899647787	328.771153076591	852.507236377239	755.336126673374	578.393915889284	792.311833847445	636.717130052907	642.159408161600	880.608493253778	594.721487761207	564.560194376296	906.256389507679	513.353171080077	577.320459880694	808.064393131331	728.378688495237	363.701630343875	701.907262876519	629.350993383871	296.093743018107	760.277750135892	539.335870412521	367.532487270121	745.858830893529	469.894723106989	377.638929888457	711.377130100610	403.074300966389	367.581991355889	611.258842339447	300.773854767638	311.915282144003	638.665087568147	185.509515937513	386.775008670807	892.545552055479	425.339488607040	584.786820829834	839.650989632399	309.206480793073	641.906504398908	911.484598426800	226.210932070445	589.483178231300	819.301077148122	44.015360672647	551.722059789496	981.651636467620	110.630148386773	596.450407858255	901.686660978481	37.888846648732	627.689669471974	1105.325348719307	70.727679828394	625.863530141767	492.376098953069	37.939509493541	422.387726809925	568.413742106639	35.133508510700	344.084895712376	651.960606485593	94.628533416228	373.469809065845	780.409624546087	40.126679961648	346.871509372716	806.670674383344	1089.733549881845	158.114280720117	1035.941263852302	980.579667488370	206.761457004061	618.576773216115	1114.343590941031	733.271132233979	602.793506731350	853.898669102433	747.093516814472	
